<?xml version="1.0" encoding="utf-8"?>
<!-- Generator: Adobe Illustrator 17.0.0, SVG Export Plug-In . SVG Version: 6.00 Build 0)  -->
<!DOCTYPE svg PUBLIC "-//W3C//DTD SVG 1.1//EN" "http://www.w3.org/Graphics/SVG/1.1/DTD/svg11.dtd">
<svg version="1.1" id="Layer_1" xmlns="http://www.w3.org/2000/svg" xmlns:xlink="http://www.w3.org/1999/xlink" x="0px" y="0px"
	 width="100px" height="100px" viewBox="0 0 100 100" enable-background="new 0 0 100 100" xml:space="preserve">
<g id="Captions">
</g>
<g id="Your_Icon">
	<g>
		<path d="M61.047,78.169H52.21v-6.738c11.928-1.12,21.302-11.184,21.302-23.402V36.192c0-1.221-0.99-2.21-2.21-2.21h-2.277
			c-1.22,0-2.21,0.99-2.21,2.21c0,1.221,0.991,2.21,2.21,2.21l0.067,9.625c0,10.528-8.563,19.095-19.092,19.095
			s-19.097-8.566-19.097-19.095v-9.625h0.072c1.22,0,2.21-0.99,2.21-2.21c0-1.221-0.991-2.21-2.21-2.21h-2.282
			c-1.22,0-2.21,0.99-2.21,2.21v11.835c0,12.219,9.373,22.283,21.307,23.402v6.738h-8.836c-7.308,0-13.257,5.949-13.257,13.257
			c0,1.22,0.991,2.21,2.21,2.21h44.187c1.22,0,2.21-0.991,2.21-2.21C74.304,84.116,68.355,78.169,61.047,78.169z M30.395,89.215
			c0.983-3.807,4.449-6.626,8.558-6.626H50h11.047c4.109,0,7.576,2.819,8.558,6.626H30.395z"/>
		<path d="M50,6.365c-7.308,0-13.257,5.948-13.257,13.257v27.617c0,7.308,5.949,13.257,13.257,13.257s13.257-5.949,13.257-13.257
			V19.621C63.257,12.313,57.308,6.365,50,6.365z M58.836,47.239c0,4.871-3.965,8.836-8.836,8.836s-8.836-3.965-8.836-8.836V19.621
			c0-4.871,3.965-8.836,8.836-8.836s8.836,3.965,8.836,8.836V47.239z"/>
	</g>
</g>
</svg>
