<?xml version="1.0" encoding="utf-8"?>
<!-- Generator: Adobe Illustrator 17.0.0, SVG Export Plug-In . SVG Version: 6.00 Build 0)  -->
<!DOCTYPE svg PUBLIC "-//W3C//DTD SVG 1.1//EN" "http://www.w3.org/Graphics/SVG/1.1/DTD/svg11.dtd">
<svg version="1.1" id="Layer_1" xmlns="http://www.w3.org/2000/svg" xmlns:xlink="http://www.w3.org/1999/xlink" x="0px" y="0px"
	 width="100px" height="100px" viewBox="0 0 100 100" enable-background="new 0 0 100 100" xml:space="preserve">
<g id="play_1_">
	<path d="M75.835,42.348L32.357,11.11c-1.783-1.285-3.609-1.934-5.392-1.934c-3.376,0-6.998,2.598-6.998,8.298v65.049
		c0,5.703,3.624,8.3,6.998,8.3c1.783,0,3.609-0.649,5.407-1.934l43.455-31.236c2.68-1.917,4.206-4.703,4.206-7.658
		C80.033,47.052,78.5,44.267,75.835,42.348z M71.319,51.371L27.864,82.607c-0.067,0.038-0.122,0.077-0.166,0.106
		c0-0.06,0-0.12,0-0.19V17.475c0-0.077,0-0.135,0-0.188c0.053,0.031,0.106,0.069,0.166,0.106l43.47,31.236
		c0.61,0.447,0.981,0.954,0.981,1.367C72.316,50.419,71.941,50.926,71.319,51.371z"/>
</g>
</svg>
