<?xml version="1.0" encoding="utf-8"?>
<!-- Generator: Adobe Illustrator 17.0.0, SVG Export Plug-In . SVG Version: 6.00 Build 0)  -->
<!DOCTYPE svg PUBLIC "-//W3C//DTD SVG 1.1//EN" "http://www.w3.org/Graphics/SVG/1.1/DTD/svg11.dtd">
<svg version="1.1" id="Layer_1" xmlns="http://www.w3.org/2000/svg" xmlns:xlink="http://www.w3.org/1999/xlink" x="0px" y="0px"
	 width="100px" height="100px" viewBox="0 0 100 100" enable-background="new 0 0 100 100" xml:space="preserve">
<path d="M57.464,17.272v65.456c0,3.646,1.641,9.761,12.632,9.761s12.632-6.115,12.632-9.761V17.272
	c0-3.646-1.641-9.761-12.632-9.761S57.464,13.626,57.464,17.272z M78.134,17.272v65.456c0,1.547,0,5.168-8.038,5.168
	s-8.038-3.621-8.038-5.168V17.272c0-1.547,0-5.168,8.038-5.168S78.134,15.725,78.134,17.272z"/>
<path d="M17.272,17.272v65.456c0,3.646,1.641,9.761,12.632,9.761s12.632-6.115,12.632-9.761V17.272
	c0-3.646-1.641-9.761-12.632-9.761S17.272,13.626,17.272,17.272z M37.942,17.272v65.456c0,1.547,0,5.168-8.038,5.168
	s-8.038-3.621-8.038-5.168V17.272c0-1.547,0-5.168,8.038-5.168S37.942,15.725,37.942,17.272z"/>
</svg>
