<?xml version="1.0" encoding="utf-8"?>
<!-- Generator: Adobe Illustrator 17.0.0, SVG Export Plug-In . SVG Version: 6.00 Build 0)  -->
<!DOCTYPE svg PUBLIC "-//W3C//DTD SVG 1.1//EN" "http://www.w3.org/Graphics/SVG/1.1/DTD/svg11.dtd">
<svg version="1.1" id="Layer_1" xmlns="http://www.w3.org/2000/svg" xmlns:xlink="http://www.w3.org/1999/xlink" x="0px" y="0px"
	 width="100px" height="100px" viewBox="0 0 100 100" enable-background="new 0 0 100 100" xml:space="preserve">
<g>
	<path d="M40.561,80.808c0,6.67-5.296,12.076-11.826,12.076l0,0c-6.532,0.001-11.827-5.407-11.827-12.076V19.193
		c0-6.67,5.295-12.076,11.827-12.076l0,0c6.53,0,11.826,5.407,11.826,12.077L40.561,80.808L40.561,80.808z"/>
	<path d="M83.091,80.808c0,6.67-5.296,12.076-11.826,12.076l0,0c-6.532,0.001-11.827-5.407-11.827-12.076V19.193
		c0-6.67,5.295-12.077,11.827-12.077l0,0c6.53,0,11.826,5.407,11.826,12.077L83.091,80.808L83.091,80.808z"/>
</g>
</svg>
