<?xml version="1.0" encoding="utf-8"?>
<!-- Generator: Adobe Illustrator 17.0.0, SVG Export Plug-In . SVG Version: 6.00 Build 0)  -->
<!DOCTYPE svg PUBLIC "-//W3C//DTD SVG 1.1//EN" "http://www.w3.org/Graphics/SVG/1.1/DTD/svg11.dtd">
<svg version="1.1" id="Layer_1" xmlns="http://www.w3.org/2000/svg" xmlns:xlink="http://www.w3.org/1999/xlink" x="0px" y="0px"
	 width="100px" height="100px" viewBox="0 0 100 100" enable-background="new 0 0 100 100" xml:space="preserve">
<g>
	<path d="M50,64.124c7.769,0,14.07-6.298,14.07-14.069V21.796C64.068,14.028,57.768,7.728,50,7.728
		c-7.771,0-14.069,6.3-14.069,14.069v28.259C35.93,57.826,42.228,64.124,50,64.124z"/>
	<path d="M70.628,44.335v5.738c0,11.376-9.252,20.628-20.628,20.628S29.371,61.45,29.371,50.074v-5.738h-5.639v5.738
		c0,13.532,10.285,24.702,23.448,26.114v10.444H31.666v5.64h36.669v-5.64H52.82V76.188c13.163-1.411,23.448-12.582,23.448-26.114
		v-5.738C76.268,44.335,70.628,44.335,70.628,44.335z"/>
</g>
</svg>
